<?xml version="1.0" standalone="no"?>
<!DOCTYPE svg PUBLIC "-//W3C//DTD SVG 20010904//EN"
 "http://www.w3.org/TR/2001/REC-SVG-20010904/DTD/svg10.dtd">
<svg version="1.0" xmlns="http://www.w3.org/2000/svg"
 width="1024.000000pt" height="1024.000000pt" viewBox="0 0 1024.000000 1024.000000"
 preserveAspectRatio="xMidYMid meet">

<g transform="translate(0.000000,1024.000000) scale(0.100000,-0.100000)"
fill="#000000" stroke="none">
<path d="M0 5120 l0 -5120 5120 0 5120 0 0 5120 0 5120 -5120 0 -5120 0 0
-5120z m5441 3244 c190 -18 421 -61 588 -109 161 -47 484 -173 449 -175 -4 0
-33 7 -65 15 -211 55 -553 64 -768 20 -218 -44 -445 -129 -589 -220 -143 -90
-222 -159 -561 -499 -534 -535 -1767 -1785 -1830 -1856 -303 -343 -454 -880
-389 -1390 30 -235 98 -453 209 -666 l63 -122 -43 -42 -43 -42 -45 64 c-160
225 -318 539 -413 823 -126 378 -172 699 -161 1120 10 370 52 605 167 940 182
526 472 953 906 1334 220 194 446 343 719 476 388 189 785 299 1220 338 112
10 439 5 586 -9z m739 -519 c257 -34 543 -143 685 -260 l30 -25 -55 -57 c-30
-32 -132 -136 -226 -231 l-170 -174 -47 32 c-118 79 -252 114 -447 114 -174 0
-276 -22 -412 -89 -154 -76 -75 -1 -1344 -1290 -807 -820 -818 -832 -880 -915
-108 -144 -165 -294 -186 -496 -13 -125 -2 -287 28 -397 l15 -59 -57 -61 c-83
-89 -356 -367 -360 -367 -2 0 -22 35 -43 78 -55 110 -107 264 -139 411 -24
114 -26 146 -26 331 0 174 3 221 23 310 44 207 117 386 218 539 60 89 141 174
1117 1161 843 851 1162 1168 1221 1210 155 113 417 207 665 239 104 13 276 12
390 -4z m1642 -5 c58 -22 124 -82 154 -140 9 -19 19 -67 22 -106 8 -122 -14
-155 -234 -369 -102 -99 -406 -401 -677 -671 -546 -545 -535 -536 -661 -538
-134 -2 -244 77 -277 198 -15 54 -6 134 21 185 14 28 262 283 713 735 753 755
717 723 834 725 30 1 75 -8 105 -19z m-1663 -960 c23 -12 21 -15 -97 -133 -97
-96 -130 -136 -161 -196 -51 -99 -71 -179 -71 -288 0 -232 125 -452 390 -682
l35 -30 -37 6 c-20 3 -50 1 -66 -5 -24 -8 -35 -7 -54 5 l-23 16 21 -22 c17
-18 25 -20 47 -12 19 7 27 7 30 -2 3 -9 8 -9 19 1 11 9 18 10 23 2 7 -11 -12
-14 -57 -11 -16 1 -28 -3 -28 -9 0 -6 6 -10 13 -9 6 1 20 -1 31 -6 12 -5 21
-3 27 6 6 10 9 4 9 -19 0 -21 4 -31 11 -27 6 4 8 13 5 21 -3 7 -1 16 4 19 6 4
10 -3 10 -14 0 -12 7 -21 16 -21 9 0 12 -5 8 -12 -4 -7 -3 -8 4 -4 6 4 20 3
30 -3 10 -5 54 -11 98 -12 43 -1 82 -7 86 -13 5 -7 14 -7 30 2 13 6 37 12 53
14 17 1 37 7 45 13 11 7 10 3 -3 -17 -10 -16 -13 -28 -7 -28 6 0 13 7 16 15 4
8 13 15 21 15 10 0 12 6 8 23 -7 22 -7 22 10 -2 10 -12 20 -19 24 -14 3 5 20
17 36 27 53 33 -75 -99 -1392 -1434 -185 -188 -219 -216 -184 -152 11 21 9 28
-26 69 -21 25 -64 77 -95 117 -32 39 -63 78 -71 86 -7 8 -45 58 -84 110 -107
142 -269 327 -322 365 -104 76 -229 115 -367 115 -96 0 -187 -21 -284 -68 -67
-31 -96 -56 -282 -240 l-208 -206 0 80 c0 161 62 330 161 438 147 161 372 256
608 256 l73 0 293 298 c646 654 859 867 867 865 4 -2 7 1 5 5 -1 5 25 35 57
68 33 32 53 50 46 39 -15 -20 -14 -20 8 -1 12 11 22 26 22 35 0 13 2 13 9 2
13 -20 20 -2 37 96 43 248 173 414 367 468 59 17 171 14 206 -5z m1588 -281
c68 -202 93 -357 93 -582 0 -160 -10 -237 -52 -402 -47 -183 -111 -333 -206
-480 -55 -85 -64 -95 -991 -1035 -1246 -1263 -1219 -1238 -1411 -1335 -359
-181 -822 -209 -1207 -74 -97 34 -269 115 -279 131 -4 6 87 103 200 216 l207
206 71 -23 c262 -85 603 -32 838 129 88 61 2019 2004 2079 2093 52 76 108 204
137 312 23 88 27 120 28 260 0 88 -1 183 -4 212 l-5 51 219 226 c120 125 224
225 230 223 6 -2 30 -59 53 -128z m649 -1459 c-8 -262 -30 -437 -87 -680 -28
-118 -103 -363 -119 -385 -4 -5 -17 -37 -30 -70 -80 -205 -267 -523 -424 -719
-226 -283 -552 -569 -821 -721 -360 -204 -568 -289 -935 -383 -144 -37 -183
-45 -352 -72 -100 -16 -229 -30 -276 -30 l-43 0 20 28 c57 76 211 221 338 316
77 58 149 109 160 114 69 28 180 117 293 236 196 206 681 681 692 678 5 -1 7
2 4 7 -3 5 191 204 432 443 448 444 458 455 565 618 58 88 99 144 270 368 77
100 136 210 211 397 32 77 65 158 74 180 l17 40 8 -90 c5 -50 6 -173 3 -275z
m-4113 -719 c62 -27 114 -75 144 -135 22 -42 27 -65 27 -131 2 -143 18 -123
-618 -760 -630 -631 -694 -692 -759 -723 -48 -23 -93 -29 -82 -12 3 5 -7 5
-26 -2 -78 -27 -222 18 -273 85 -63 82 -75 198 -32 293 22 47 73 105 304 338
964 978 1012 1024 1097 1054 51 18 168 14 218 -7z m821 -602 c-3 -5 -9 -7 -14
-4 -7 5 -38 -24 -32 -32 1 -1 -1 -2 -5 0 -12 3 -4 18 20 37 22 18 43 17 31 -1z
m-64 -64 c0 0 -28 -27 -62 -60 -34 -33 -57 -53 -50 -44 6 9 10 19 7 22 -3 4
-2 5 2 2 11 -8 42 26 37 40 -3 7 -1 16 5 20 6 3 11 1 11 -6 0 -8 4 -8 15 1 13
11 13 15 3 21 -8 5 -5 8 10 6 12 0 22 -2 22 -2z m-210 -179 c0 -2 -7 -7 -16
-10 -8 -3 -12 -2 -9 4 6 10 25 14 25 6z"/>
<path d="M6030 5615 c0 -2 10 -10 23 -16 20 -11 21 -11 8 4 -13 16 -31 23 -31
12z"/>
<path d="M6104 5575 c36 -19 47 -19 22 0 -11 8 -27 15 -35 15 -9 0 -3 -7 13
-15z"/>
<path d="M6636 5418 c3 -5 10 -6 15 -3 13 9 11 12 -6 12 -8 0 -12 -4 -9 -9z"/>
<path d="M6570 5396 c0 -9 5 -16 10 -16 6 0 10 4 10 9 0 6 -4 13 -10 16 -5 3
-10 -1 -10 -9z"/>
<path d="M5144 3878 l-19 -23 23 19 c12 11 22 21 22 23 0 8 -8 2 -26 -19z"/>
</g>
</svg>
